{
  "accessors": [
    {
      "bufferView": 2,
      "componentType": 5126,
      "count": 6948,
      "max": [
        2.793045997619629,
        7.572738170623779,
        2.3398659229278564
      ],
      "min": [
        2.521109104156494,
        6.370467185974121,
        -0.14516699314117432
      ],
      "type": "VEC3"
    },
    {
      "bufferView": 2,
      "byteOffset": 83376,
      "componentType": 5126,
      "count": 6948,
      "max": [
        1.0,
        1.0,
        1.0
      ],
      "min": [
        -1.0,
        -1.0,
        -1.0
      ],
      "type": "VEC3"
    },
    {
      "bufferView": 3,
      "componentType": 5126,
      "count": 6948,
      "max": [
        1.0,
        1.0,
        0.9922316670417786,
        1.0
      ],
      "min": [
        -1.0,
        -1.0,
        -0.9922317266464233,
        1.0
      ],
      "type": "VEC4"
    },
    {
      "bufferView": 1,
      "componentType": 5126,
      "count": 6948,
      "max": [
        0.2291709929704666,
        0.9995120167732239
      ],
      "min": [
        0.0004879999905824661,
        0.0004879999905824661
      ],
      "type": "VEC2"
    },
    {
      "bufferView": 0,
      "componentType": 5125,
      "count": 22542,
      "type": "SCALAR"
    }
  ],
  "asset": {
    "extras": {
      "author": "barbodoji (https://sketchfab.com/barbodoji)",
      "license": "CC-BY-4.0 (http://creativecommons.org/licenses/by/4.0/)",
      "source": "https://sketchfab.com/3d-models/exit-door-c1d5f41dfb8a4213b65363307dcf1eed",
      "title": "Exit Door"
    },
    "generator": "Sketchfab-16.62.0",
    "version": "2.0"
  },
  "bufferViews": [
    {
      "buffer": 0,
      "byteLength": 90168,
      "name": "floatBufferViews",
      "target": 34963
    },
    {
      "buffer": 0,
      "byteLength": 55584,
      "byteOffset": 90168,
      "byteStride": 8,
      "name": "floatBufferViews",
      "target": 34962
    },
    {
      "buffer": 0,
      "byteLength": 166752,
      "byteOffset": 145752,
      "byteStride": 12,
      "name": "floatBufferViews",
      "target": 34962
    },
    {
      "buffer": 0,
      "byteLength": 111168,
      "byteOffset": 312504,
      "byteStride": 16,
      "name": "floatBufferViews",
      "target": 34962
    }
  ],
  "buffers": [
    {
      "byteLength": 423672,
      "uri": "scene.bin"
    }
  ],
  "images": [
    {
      "uri": "textures/Door_baseColor.png"
    },
    {
      "uri": "textures/Door_metallicRoughness.png"
    },
    {
      "uri": "textures/Door_normal.png"
    }
  ],
  "materials": [
    {
      "doubleSided": true,
      "name": "Door",
      "normalTexture": {
        "index": 2
      },
      "pbrMetallicRoughness": {
        "baseColorTexture": {
          "index": 0
        },
        "metallicRoughnessTexture": {
          "index": 1
        }
      }
    }
  ],
  "meshes": [
    {
      "name": "Object_0",
      "primitives": [
        {
          "attributes": {
            "NORMAL": 1,
            "POSITION": 0,
            "TANGENT": 2,
            "TEXCOORD_0": 3
          },
          "indices": 4,
          "material": 0,
          "mode": 4
        }
      ]
    }
  ],
  "nodes": [
    {
      "children": [
        1
      ],
      "matrix": [
        1.0,
        0.0,
        0.0,
        0.0,
        0.0,
        2.220446049250313e-16,
        -1.0,
        0.0,
        0.0,
        1.0,
        2.220446049250313e-16,
        0.0,
        0.0,
        0.0,
        0.0,
        1.0
      ],
      "name": "Sketchfab_model"
    },
    {
      "children": [
        2
      ],
      "name": "5ff867c60d244fe1bbf25826980a7c3b.obj.cleaner.materialmerger.gles"
    },
    {
      "mesh": 0,
      "name": "Object_2"
    }
  ],
  "samplers": [
    {
      "magFilter": 9729,
      "minFilter": 9987,
      "wrapS": 10497,
      "wrapT": 10497
    }
  ],
  "scene": 0,
  "scenes": [
    {
      "name": "Sketchfab_Scene",
      "nodes": [
        0
      ]
    }
  ],
  "textures": [
    {
      "sampler": 0,
      "source": 0
    },
    {
      "sampler": 0,
      "source": 1
    },
    {
      "sampler": 0,
      "source": 2
    }
  ]
}
