{
	"asset":{
		"generator":"Khronos glTF Blender I/O v4.4.55",
		"version":"2.0"
	},
	"scene":0,
	"scenes":[
		{
			"name":"Scene",
			"nodes":[
				12
			]
		}
	],
	"nodes":[
		{
			"mesh":0,
			"name":"Object_15",
			"rotation":[
				-0.7071066498756409,
				0,
				0,
				0.70710688829422
			],
			"scale":[
				0.009999999776482582,
				0.009999998845160007,
				0.009999998845160007
			]
		},
		{
			"mesh":1,
			"name":"Object_16",
			"rotation":[
				-0.7071066498756409,
				0,
				0,
				0.70710688829422
			],
			"scale":[
				0.009999999776482582,
				0.009999998845160007,
				0.009999998845160007
			]
		},
		{
			"mesh":2,
			"name":"Object_17",
			"rotation":[
				-0.7071066498756409,
				0,
				0,
				0.70710688829422
			],
			"scale":[
				0.009999999776482582,
				0.009999998845160007,
				0.009999998845160007
			]
		},
		{
			"children":[
				0,
				1,
				2
			],
			"name":"angel-close",
			"rotation":[
				0,
				-0.7071068286895752,
				0.7071068286895752,
				5.338508302088485e-08
			],
			"scale":[
				100,
				100,
				100
			],
			"translation":[
				0,
				0,
				-15.473875045776367
			]
		},
		{
			"mesh":3,
			"name":"Object_7",
			"rotation":[
				-1,
				0,
				0,
				2.186525875913503e-07
			],
			"scale":[
				0.009999999776482582,
				0.009999996982514858,
				0.009999996982514858
			]
		},
		{
			"mesh":4,
			"name":"Object_8",
			"rotation":[
				-1,
				0,
				0,
				2.186525875913503e-07
			],
			"scale":[
				0.009999999776482582,
				0.009999996982514858,
				0.009999996982514858
			]
		},
		{
			"mesh":5,
			"name":"Object_9",
			"rotation":[
				-1,
				0,
				0,
				2.186525875913503e-07
			],
			"scale":[
				0.009999999776482582,
				0.009999996982514858,
				0.009999996982514858
			]
		},
		{
			"children":[
				4,
				5,
				6
			],
			"name":"angel-far",
			"rotation":[
				0,
				0,
				1,
				1.2300169461795536e-14
			],
			"scale":[
				100,
				100,
				100
			],
			"translation":[
				0,
				0,
				-15.473875045776367
			]
		},
		{
			"mesh":6,
			"name":"Object_11",
			"scale":[
				0.009999999776482582,
				0.009999998845160007,
				0.009999998845160007
			]
		},
		{
			"mesh":7,
			"name":"Object_12",
			"scale":[
				0.009999999776482582,
				0.009999998845160007,
				0.009999998845160007
			]
		},
		{
			"mesh":8,
			"name":"Object_13",
			"scale":[
				0.009999999776482582,
				0.009999998845160007,
				0.009999998845160007
			]
		},
		{
			"children":[
				8,
				9,
				10
			],
			"name":"angel-mid",
			"rotation":[
				0,
				-1,
				0,
				7.549790126404332e-08
			],
			"scale":[
				100,
				100,
				100
			],
			"translation":[
				0,
				0,
				-15.473875045776367
			]
		},
		{
			"children":[
				3,
				7,
				11
			],
			"name":"Angel"
		}
	],
	"materials":[
		{
			"doubleSided":true,
			"name":"AngelBody",
			"normalTexture":{
				"index":0
			},
			"pbrMetallicRoughness":{
				"baseColorTexture":{
					"index":1
				},
				"metallicFactor":0,
				"metallicRoughnessTexture":{
					"index":2
				}
			}
		},
		{
			"doubleSided":true,
			"name":"AngelFace",
			"normalTexture":{
				"index":3
			},
			"pbrMetallicRoughness":{
				"baseColorTexture":{
					"index":4
				},
				"metallicFactor":0,
				"metallicRoughnessTexture":{
					"index":5
				}
			}
		},
		{
			"doubleSided":true,
			"name":"AngelWings",
			"normalTexture":{
				"index":6
			},
			"pbrMetallicRoughness":{
				"baseColorTexture":{
					"index":7
				},
				"metallicFactor":0,
				"metallicRoughnessTexture":{
					"index":8
				}
			}
		}
	],
	"meshes":[
		{
			"name":"AngelAttack_AngelBody_0",
			"primitives":[
				{
					"attributes":{
						"POSITION":0,
						"NORMAL":1,
						"TEXCOORD_0":2
					},
					"indices":3,
					"material":0
				}
			]
		},
		{
			"name":"AngelAttack_AngelFace_0",
			"primitives":[
				{
					"attributes":{
						"POSITION":4,
						"NORMAL":5,
						"TEXCOORD_0":6
					},
					"indices":7,
					"material":1
				}
			]
		},
		{
			"name":"AngelAttack_AngelWings_0",
			"primitives":[
				{
					"attributes":{
						"POSITION":8,
						"NORMAL":9,
						"TEXCOORD_0":10
					},
					"indices":11,
					"material":2
				}
			]
		},
		{
			"name":"Angelidle_AngelBody_0",
			"primitives":[
				{
					"attributes":{
						"POSITION":12,
						"NORMAL":13,
						"TEXCOORD_0":14
					},
					"indices":15,
					"material":0
				}
			]
		},
		{
			"name":"Angelidle_AngelFace_0",
			"primitives":[
				{
					"attributes":{
						"POSITION":16,
						"NORMAL":17,
						"TEXCOORD_0":18
					},
					"indices":19,
					"material":1
				}
			]
		},
		{
			"name":"Angelidle_AngelWings_0",
			"primitives":[
				{
					"attributes":{
						"POSITION":20,
						"NORMAL":21,
						"TEXCOORD_0":22
					},
					"indices":11,
					"material":2
				}
			]
		},
		{
			"name":"AngelPoint_AngelBody_0",
			"primitives":[
				{
					"attributes":{
						"POSITION":23,
						"NORMAL":24,
						"TEXCOORD_0":25
					},
					"indices":26,
					"material":0
				}
			]
		},
		{
			"name":"AngelPoint_AngelFace_0",
			"primitives":[
				{
					"attributes":{
						"POSITION":27,
						"NORMAL":28,
						"TEXCOORD_0":29
					},
					"indices":19,
					"material":1
				}
			]
		},
		{
			"name":"AngelPoint_AngelWings_0",
			"primitives":[
				{
					"attributes":{
						"POSITION":30,
						"NORMAL":31,
						"TEXCOORD_0":32
					},
					"indices":11,
					"material":2
				}
			]
		}
	],
	"textures":[
		{
			"sampler":0,
			"source":0
		},
		{
			"sampler":0,
			"source":1
		},
		{
			"sampler":0,
			"source":2
		},
		{
			"sampler":0,
			"source":3
		},
		{
			"sampler":0,
			"source":4
		},
		{
			"sampler":0,
			"source":5
		},
		{
			"sampler":0,
			"source":6
		},
		{
			"sampler":0,
			"source":7
		},
		{
			"sampler":0,
			"source":8
		}
	],
	"images":[
		{
			"mimeType":"image/png",
			"name":"AngelBody_normal",
			"uri":"textures/AngelBody_normal.png"
		},
		{
			"mimeType":"image/png",
			"name":"AngelBody_baseColor",
			"uri":"textures/AngelBody_baseColor.png"
		},
		{
			"mimeType":"image/png",
			"name":"AngelBody_metallicRoughness",
			"uri":"textures/AngelBody_metallicRoughness.png"
		},
		{
			"mimeType":"image/png",
			"name":"AngelFace_normal",
			"uri":"textures/AngelFace_normal.png"
		},
		{
			"mimeType":"image/png",
			"name":"AngelFace_baseColor",
			"uri":"textures/AngelFace_baseColor.png"
		},
		{
			"mimeType":"image/png",
			"name":"AngelFace_metallicRoughness",
			"uri":"textures/AngelFace_metallicRoughness.png"
		},
		{
			"mimeType":"image/png",
			"name":"AngelWings_normal",
			"uri":"textures/AngelWings_normal.png"
		},
		{
			"mimeType":"image/png",
			"name":"AngelWings_baseColor",
			"uri":"textures/AngelWings_baseColor.png"
		},
		{
			"mimeType":"image/png",
			"name":"AngelWings_metallicRoughness",
			"uri":"textures/AngelWings_metallicRoughness.png"
		}
	],
	"accessors":[
		{
			"bufferView":0,
			"componentType":5126,
			"count":1466,
			"max":[
				17.396251678466797,
				71.03227996826172,
				1.3403280973434448
			],
			"min":[
				-18.22189712524414,
				0.0324280746281147,
				-32.77724838256836
			],
			"type":"VEC3"
		},
		{
			"bufferView":1,
			"componentType":5126,
			"count":1466,
			"type":"VEC3"
		},
		{
			"bufferView":2,
			"componentType":5126,
			"count":1466,
			"type":"VEC2"
		},
		{
			"bufferView":3,
			"componentType":5123,
			"count":6750,
			"type":"SCALAR"
		},
		{
			"bufferView":4,
			"componentType":5126,
			"count":1601,
			"max":[
				3.1320550441741943,
				72.5124740600586,
				-8.388124465942383
			],
			"min":[
				-3.7584919929504395,
				59.59026336669922,
				-17.340639114379883
			],
			"type":"VEC3"
		},
		{
			"bufferView":5,
			"componentType":5126,
			"count":1601,
			"type":"VEC3"
		},
		{
			"bufferView":6,
			"componentType":5126,
			"count":1601,
			"type":"VEC2"
		},
		{
			"bufferView":7,
			"componentType":5123,
			"count":8880,
			"type":"SCALAR"
		},
		{
			"bufferView":8,
			"componentType":5126,
			"count":1080,
			"max":[
				18.80193519592285,
				70.59387969970703,
				-17.72469711303711
			],
			"min":[
				-19.42901039123535,
				20.989059448242188,
				-32.055320739746094
			],
			"type":"VEC3"
		},
		{
			"bufferView":9,
			"componentType":5126,
			"count":1080,
			"type":"VEC3"
		},
		{
			"bufferView":10,
			"componentType":5126,
			"count":1080,
			"type":"VEC2"
		},
		{
			"bufferView":11,
			"componentType":5123,
			"count":5712,
			"type":"SCALAR"
		},
		{
			"bufferView":12,
			"componentType":5126,
			"count":1467,
			"max":[
				14.14148235321045,
				68.45185852050781,
				-2.1821377277374268
			],
			"min":[
				-14.724260330200195,
				0.0324280746281147,
				-32.77724838256836
			],
			"type":"VEC3"
		},
		{
			"bufferView":13,
			"componentType":5126,
			"count":1467,
			"type":"VEC3"
		},
		{
			"bufferView":14,
			"componentType":5126,
			"count":1467,
			"type":"VEC2"
		},
		{
			"bufferView":15,
			"componentType":5123,
			"count":6750,
			"type":"SCALAR"
		},
		{
			"bufferView":16,
			"componentType":5126,
			"count":1649,
			"max":[
				3.153883934020996,
				71.88367462158203,
				-6.319523334503174
			],
			"min":[
				-3.736660957336426,
				59.59026336669922,
				-17.236820220947266
			],
			"type":"VEC3"
		},
		{
			"bufferView":17,
			"componentType":5126,
			"count":1649,
			"type":"VEC3"
		},
		{
			"bufferView":18,
			"componentType":5126,
			"count":1649,
			"type":"VEC2"
		},
		{
			"bufferView":19,
			"componentType":5123,
			"count":8916,
			"type":"SCALAR"
		},
		{
			"bufferView":20,
			"componentType":5126,
			"count":1080,
			"max":[
				18.823766708374023,
				70.59387969970703,
				-17.72469711303711
			],
			"min":[
				-19.40717887878418,
				20.989059448242188,
				-32.055320739746094
			],
			"type":"VEC3"
		},
		{
			"bufferView":21,
			"componentType":5126,
			"count":1080,
			"type":"VEC3"
		},
		{
			"bufferView":22,
			"componentType":5126,
			"count":1080,
			"type":"VEC2"
		},
		{
			"bufferView":23,
			"componentType":5126,
			"count":1467,
			"max":[
				14.191293716430664,
				61.934539794921875,
				13.726863861083984
			],
			"min":[
				-14.67444896697998,
				0.0324280746281147,
				-32.77724838256836
			],
			"type":"VEC3"
		},
		{
			"bufferView":24,
			"componentType":5126,
			"count":1467,
			"type":"VEC3"
		},
		{
			"bufferView":25,
			"componentType":5126,
			"count":1467,
			"type":"VEC2"
		},
		{
			"bufferView":26,
			"componentType":5123,
			"count":6750,
			"type":"SCALAR"
		},
		{
			"bufferView":27,
			"componentType":5126,
			"count":1649,
			"max":[
				3.203695058822632,
				72.5124740600586,
				-8.388124465942383
			],
			"min":[
				-3.6868510246276855,
				59.59026336669922,
				-17.340639114379883
			],
			"type":"VEC3"
		},
		{
			"bufferView":28,
			"componentType":5126,
			"count":1649,
			"type":"VEC3"
		},
		{
			"bufferView":29,
			"componentType":5126,
			"count":1649,
			"type":"VEC2"
		},
		{
			"bufferView":30,
			"componentType":5126,
			"count":1080,
			"max":[
				18.873573303222656,
				70.59387969970703,
				-17.72469711303711
			],
			"min":[
				-19.357370376586914,
				20.989059448242188,
				-32.055320739746094
			],
			"type":"VEC3"
		},
		{
			"bufferView":31,
			"componentType":5126,
			"count":1080,
			"type":"VEC3"
		},
		{
			"bufferView":32,
			"componentType":5126,
			"count":1080,
			"type":"VEC2"
		}
	],
	"bufferViews":[
		{
			"buffer":0,
			"byteLength":17592,
			"byteOffset":0,
			"target":34962
		},
		{
			"buffer":0,
			"byteLength":17592,
			"byteOffset":17592,
			"target":34962
		},
		{
			"buffer":0,
			"byteLength":11728,
			"byteOffset":35184,
			"target":34962
		},
		{
			"buffer":0,
			"byteLength":13500,
			"byteOffset":46912,
			"target":34963
		},
		{
			"buffer":0,
			"byteLength":19212,
			"byteOffset":60412,
			"target":34962
		},
		{
			"buffer":0,
			"byteLength":19212,
			"byteOffset":79624,
			"target":34962
		},
		{
			"buffer":0,
			"byteLength":12808,
			"byteOffset":98836,
			"target":34962
		},
		{
			"buffer":0,
			"byteLength":17760,
			"byteOffset":111644,
			"target":34963
		},
		{
			"buffer":0,
			"byteLength":12960,
			"byteOffset":129404,
			"target":34962
		},
		{
			"buffer":0,
			"byteLength":12960,
			"byteOffset":142364,
			"target":34962
		},
		{
			"buffer":0,
			"byteLength":8640,
			"byteOffset":155324,
			"target":34962
		},
		{
			"buffer":0,
			"byteLength":11424,
			"byteOffset":163964,
			"target":34963
		},
		{
			"buffer":0,
			"byteLength":17604,
			"byteOffset":175388,
			"target":34962
		},
		{
			"buffer":0,
			"byteLength":17604,
			"byteOffset":192992,
			"target":34962
		},
		{
			"buffer":0,
			"byteLength":11736,
			"byteOffset":210596,
			"target":34962
		},
		{
			"buffer":0,
			"byteLength":13500,
			"byteOffset":222332,
			"target":34963
		},
		{
			"buffer":0,
			"byteLength":19788,
			"byteOffset":235832,
			"target":34962
		},
		{
			"buffer":0,
			"byteLength":19788,
			"byteOffset":255620,
			"target":34962
		},
		{
			"buffer":0,
			"byteLength":13192,
			"byteOffset":275408,
			"target":34962
		},
		{
			"buffer":0,
			"byteLength":17832,
			"byteOffset":288600,
			"target":34963
		},
		{
			"buffer":0,
			"byteLength":12960,
			"byteOffset":306432,
			"target":34962
		},
		{
			"buffer":0,
			"byteLength":12960,
			"byteOffset":319392,
			"target":34962
		},
		{
			"buffer":0,
			"byteLength":8640,
			"byteOffset":332352,
			"target":34962
		},
		{
			"buffer":0,
			"byteLength":17604,
			"byteOffset":340992,
			"target":34962
		},
		{
			"buffer":0,
			"byteLength":17604,
			"byteOffset":358596,
			"target":34962
		},
		{
			"buffer":0,
			"byteLength":11736,
			"byteOffset":376200,
			"target":34962
		},
		{
			"buffer":0,
			"byteLength":13500,
			"byteOffset":387936,
			"target":34963
		},
		{
			"buffer":0,
			"byteLength":19788,
			"byteOffset":401436,
			"target":34962
		},
		{
			"buffer":0,
			"byteLength":19788,
			"byteOffset":421224,
			"target":34962
		},
		{
			"buffer":0,
			"byteLength":13192,
			"byteOffset":441012,
			"target":34962
		},
		{
			"buffer":0,
			"byteLength":12960,
			"byteOffset":454204,
			"target":34962
		},
		{
			"buffer":0,
			"byteLength":12960,
			"byteOffset":467164,
			"target":34962
		},
		{
			"buffer":0,
			"byteLength":8640,
			"byteOffset":480124,
			"target":34962
		}
	],
	"samplers":[
		{
			"magFilter":9729,
			"minFilter":9987
		}
	],
	"buffers":[
		{
			"byteLength":488764,
			"uri":"scene.bin"
		}
	]
}
