{
	"asset":{
		"generator":"Khronos glTF Blender I/O v4.4.55",
		"version":"2.0"
	},
	"extensionsUsed":[
		"KHR_materials_specular"
	],
	"scene":0,
	"scenes":[
		{
			"name":"Scene",
			"nodes":[
				6
			]
		}
	],
	"nodes":[
		{
			"mesh":0,
			"name":"Object_4"
		},
		{
			"mesh":1,
			"name":"Object_5"
		},
		{
			"mesh":2,
			"name":"Object_6"
		},
		{
			"children":[
				0,
				1,
				2
			],
			"name":"Cube_0",
			"translation":[
				0,
				0.24679715931415558,
				0.021426912397146225
			]
		},
		{
			"children":[
				3
			],
			"name":"GLTF_SceneRootNode",
			"rotation":[
				0.70710688829422,
				0,
				0,
				0.7071066498756409
			]
		},
		{
			"children":[
				4
			],
			"name":"root"
		},
		{
			"children":[
				5
			],
			"name":"Sketchfab_model",
			"rotation":[
				0,
				-0.7071066498756409,
				-0.70710688829422,
				1.0015351317303839e-16
			]
		}
	],
	"materials":[
		{
			"doubleSided":true,
			"name":"outer",
			"pbrMetallicRoughness":{
				"metallicFactor":0.4724409878253937,
				"roughnessFactor":0.4055120050907135
			}
		},
		{
			"doubleSided":true,
			"emissiveFactor":[
				0.001346420613117516,
				0.001346420613117516,
				0.001346420613117516
			],
			"extensions":{
				"KHR_materials_specular":{
					"specularFactor":0.5104777216911316
				}
			},
			"name":"metal",
			"pbrMetallicRoughness":{
				"baseColorFactor":[
					0.41093701124191284,
					0.37970200181007385,
					0.32230401039123535,
					1
				],
				"metallicFactor":0.8761931657791138,
				"roughnessFactor":0
			}
		},
		{
			"doubleSided":true,
			"emissiveFactor":[
				1,
				1,
				1
			],
			"name":"bulb",
			"pbrMetallicRoughness":{
				"baseColorFactor":[
					1,
					0.9527140259742737,
					0.8941050171852112,
					1
				],
				"metallicFactor":0,
				"roughnessFactor":0.07874009758234024
			}
		}
	],
	"meshes":[
		{
			"name":"Object_0",
			"primitives":[
				{
					"attributes":{
						"POSITION":0,
						"NORMAL":1,
						"TEXCOORD_0":2
					},
					"indices":3,
					"material":0
				}
			]
		},
		{
			"name":"Object_1",
			"primitives":[
				{
					"attributes":{
						"POSITION":4,
						"NORMAL":5,
						"TEXCOORD_0":6
					},
					"indices":7,
					"material":1
				}
			]
		},
		{
			"name":"Object_2",
			"primitives":[
				{
					"attributes":{
						"POSITION":8,
						"NORMAL":9,
						"TEXCOORD_0":10
					},
					"indices":11,
					"material":2
				}
			]
		}
	],
	"accessors":[
		{
			"bufferView":0,
			"componentType":5126,
			"count":76,
			"max":[
				2.173461675643921,
				0.1134527325630188,
				0.5141017436981201
			],
			"min":[
				-2.173461675643921,
				-0.10040748119354248,
				-0.5141017436981201
			],
			"type":"VEC3"
		},
		{
			"bufferView":1,
			"componentType":5126,
			"count":76,
			"type":"VEC3"
		},
		{
			"bufferView":2,
			"componentType":5126,
			"count":76,
			"type":"VEC2"
		},
		{
			"bufferView":3,
			"componentType":5123,
			"count":114,
			"type":"SCALAR"
		},
		{
			"bufferView":4,
			"componentType":5126,
			"count":2562,
			"max":[
				2.1608870029449463,
				0.10929258167743683,
				0.4989458918571472
			],
			"min":[
				-2.1581389904022217,
				-0.09700321406126022,
				-0.5107048749923706
			],
			"type":"VEC3"
		},
		{
			"bufferView":5,
			"componentType":5126,
			"count":2562,
			"type":"VEC3"
		},
		{
			"bufferView":6,
			"componentType":5126,
			"count":2562,
			"type":"VEC2"
		},
		{
			"bufferView":7,
			"componentType":5123,
			"count":7170,
			"type":"SCALAR"
		},
		{
			"bufferView":8,
			"componentType":5126,
			"count":334,
			"max":[
				2.162564277648926,
				0.06743288040161133,
				0.2926786541938782
			],
			"min":[
				-2.144914388656616,
				-0.01579836755990982,
				-0.3028343915939331
			],
			"type":"VEC3"
		},
		{
			"bufferView":9,
			"componentType":5126,
			"count":334,
			"type":"VEC3"
		},
		{
			"bufferView":10,
			"componentType":5126,
			"count":334,
			"type":"VEC2"
		},
		{
			"bufferView":11,
			"componentType":5123,
			"count":936,
			"type":"SCALAR"
		}
	],
	"bufferViews":[
		{
			"buffer":0,
			"byteLength":912,
			"byteOffset":0,
			"target":34962
		},
		{
			"buffer":0,
			"byteLength":912,
			"byteOffset":912,
			"target":34962
		},
		{
			"buffer":0,
			"byteLength":608,
			"byteOffset":1824,
			"target":34962
		},
		{
			"buffer":0,
			"byteLength":228,
			"byteOffset":2432,
			"target":34963
		},
		{
			"buffer":0,
			"byteLength":30744,
			"byteOffset":2660,
			"target":34962
		},
		{
			"buffer":0,
			"byteLength":30744,
			"byteOffset":33404,
			"target":34962
		},
		{
			"buffer":0,
			"byteLength":20496,
			"byteOffset":64148,
			"target":34962
		},
		{
			"buffer":0,
			"byteLength":14340,
			"byteOffset":84644,
			"target":34963
		},
		{
			"buffer":0,
			"byteLength":4008,
			"byteOffset":98984,
			"target":34962
		},
		{
			"buffer":0,
			"byteLength":4008,
			"byteOffset":102992,
			"target":34962
		},
		{
			"buffer":0,
			"byteLength":2672,
			"byteOffset":107000,
			"target":34962
		},
		{
			"buffer":0,
			"byteLength":1872,
			"byteOffset":109672,
			"target":34963
		}
	],
	"buffers":[
		{
			"byteLength":111544,
			"uri":"scene.bin"
		}
	]
}
