{
	"asset":{
		"generator":"Khronos glTF Blender I/O v4.4.55",
		"version":"2.0"
	},
	"extensionsUsed":[
		"KHR_materials_specular",
		"KHR_materials_ior"
	],
	"scene":0,
	"scenes":[
		{
			"name":"Scene",
			"nodes":[
				4,
				5,
				6,
				7,
				8
			]
		}
	],
	"nodes":[
		{
			"mesh":0,
			"name":"Door"
		},
		{
			"children":[
				0
			],
			"name":"Jail_Door",
			"rotation":[
				-0.70710688829422,
				0,
				0,
				0.7071066498756409
			],
			"scale":[
				100,
				100,
				120.00000762939453
			],
			"translation":[
				-7.824185559002217e-06,
				0,
				0
			]
		},
		{
			"children":[
				1
			],
			"name":"RootNode"
		},
		{
			"children":[
				2
			],
			"name":"20de3821328b43ab8772222bc6618519.fbx",
			"rotation":[
				0.70710688829422,
				0,
				0,
				0.7071066498756409
			],
			"scale":[
				0.009999999776482582,
				0.009999999776482582,
				0.009999999776482582
			]
		},
		{
			"children":[
				3
			],
			"name":"Sketchfab_model",
			"rotation":[
				0,
				-0.7071068286895752,
				-0.7071068286895752,
				5.338509012631221e-08
			],
			"translation":[
				0.7914111018180847,
				0,
				-0.02580082416534424
			]
		},
		{
			"mesh":1,
			"name":"Cube",
			"rotation":[
				0,
				-1,
				0,
				7.549790836947068e-08
			],
			"scale":[
				0.48238426446914673,
				1.195056676864624,
				0.013768017292022705
			],
			"translation":[
				0.30110296607017517,
				1.1945067644119263,
				0.037496283650398254
			]
		},
		{
			"mesh":2,
			"name":"Cube.001",
			"rotation":[
				0,
				1,
				0,
				0
			],
			"scale":[
				0.03999999910593033,
				1.221574306488037,
				0.05333038419485092
			],
			"translation":[
				-0.23270952701568604,
				1.2210286855697632,
				-0.010120686143636703
			]
		},
		{
			"mesh":3,
			"name":"Cube.002",
			"rotation":[
				0,
				1,
				0,
				0
			],
			"scale":[
				0.03999999910593033,
				1.221574306488037,
				0.05333038419485092
			],
			"translation":[
				0.8297967314720154,
				1.2210286855697632,
				-0.010121535509824753
			]
		},
		{
			"mesh":4,
			"name":"Cube.003",
			"scale":[
				-0.5711339712142944,
				-0.04006830230355263,
				-0.05291500687599182
			],
			"translation":[
				0.300047367811203,
				2.4247117042541504,
				-0.010120686143636703
			]
		}
	],
	"animations":[
		{
			"channels":[
				{
					"sampler":0,
					"target":{
						"node":0,
						"path":"translation"
					}
				},
				{
					"sampler":1,
					"target":{
						"node":0,
						"path":"rotation"
					}
				},
				{
					"sampler":2,
					"target":{
						"node":0,
						"path":"scale"
					}
				}
			],
			"name":"Open",
			"samplers":[
				{
					"input":17,
					"interpolation":"STEP",
					"output":18
				},
				{
					"input":19,
					"interpolation":"LINEAR",
					"output":20
				},
				{
					"input":17,
					"interpolation":"STEP",
					"output":21
				}
			]
		}
	],
	"materials":[
		{
			"alphaMode":"BLEND",
			"extensions":{
				"KHR_materials_specular":{
					"specularFactor":0.48851096630096436
				}
			},
			"name":"JailDoor_MTL",
			"normalTexture":{
				"index":0
			},
			"pbrMetallicRoughness":{
				"baseColorTexture":{
					"index":1
				},
				"metallicRoughnessTexture":{
					"index":2
				}
			}
		},
		{
			"doubleSided":true,
			"emissiveFactor":[
				0.7426654100418091,
				0.6884476542472839,
				0.5399346947669983
			],
			"name":"Material.003",
			"pbrMetallicRoughness":{
				"metallicFactor":0,
				"roughnessFactor":0.5
			}
		},
		{
			"doubleSided":true,
			"extensions":{
				"KHR_materials_specular":{
					"specularFactor":0.2799999713897705
				},
				"KHR_materials_ior":{
					"ior":1.4500000476837158
				}
			},
			"name":"Material.004",
			"normalTexture":{
				"index":3
			},
			"pbrMetallicRoughness":{
				"baseColorTexture":{
					"index":4
				},
				"metallicRoughnessTexture":{
					"index":5
				}
			}
		}
	],
	"meshes":[
		{
			"name":"Jail_Door_JailDoor_MTL_0",
			"primitives":[
				{
					"attributes":{
						"POSITION":0,
						"NORMAL":1,
						"TEXCOORD_0":2
					},
					"indices":3,
					"material":0
				}
			]
		},
		{
			"name":"Cube.001",
			"primitives":[
				{
					"attributes":{
						"POSITION":4,
						"NORMAL":5,
						"TEXCOORD_0":6
					},
					"indices":7,
					"material":1
				}
			]
		},
		{
			"name":"Cube.002",
			"primitives":[
				{
					"attributes":{
						"POSITION":8,
						"NORMAL":9,
						"TEXCOORD_0":10
					},
					"indices":7,
					"material":2
				}
			]
		},
		{
			"name":"Cube.003",
			"primitives":[
				{
					"attributes":{
						"POSITION":11,
						"NORMAL":12,
						"TEXCOORD_0":13
					},
					"indices":7,
					"material":2
				}
			]
		},
		{
			"name":"Cube.004",
			"primitives":[
				{
					"attributes":{
						"POSITION":14,
						"NORMAL":15,
						"TEXCOORD_0":16
					},
					"indices":7,
					"material":2
				}
			]
		}
	],
	"textures":[
		{
			"sampler":0,
			"source":0
		},
		{
			"sampler":0,
			"source":1
		},
		{
			"sampler":0,
			"source":2
		},
		{
			"sampler":0,
			"source":3
		},
		{
			"sampler":0,
			"source":4
		},
		{
			"sampler":0,
			"source":5
		}
	],
	"images":[
		{
			"mimeType":"image/png",
			"name":"JailDoor_MTL_normal",
			"uri":"textures/JailDoor_MTL_normal.png"
		},
		{
			"mimeType":"image/png",
			"name":"JailDoor_MTL_baseColor",
			"uri":"textures/JailDoor_MTL_baseColor.png"
		},
		{
			"mimeType":"image/png",
			"name":"JailDoor_MTL_metallicRoughness",
			"uri":"textures/JailDoor_MTL_metallicRoughness.png"
		},
		{
			"mimeType":"image/jpeg",
			"name":"Gun_Metal_Scratched_001_NORM",
			"uri":"textures/Gun_Metal_Scratched_001_NORM.jpg"
		},
		{
			"mimeType":"image/jpeg",
			"name":"Gun_Metal_Scratched_001_COLOR",
			"uri":"textures/Gun_Metal_Scratched_001_COLOR.jpg"
		},
		{
			"mimeType":"image/png",
			"name":"Gun_Metal_Scratched_001_METAL-Gun_Metal_Scratched_001_ROUGH",
			"uri":"textures/Gun_Metal_Scratched_001_METAL-Gun_Metal_Scratched_001_ROUGH.png"
		}
	],
	"accessors":[
		{
			"bufferView":0,
			"componentType":5126,
			"count":5065,
			"max":[
				1,
				0.05000000819563866,
				2
			],
			"min":[
				-0.011999964714050293,
				-0.08992904424667358,
				0
			],
			"type":"VEC3"
		},
		{
			"bufferView":1,
			"componentType":5126,
			"count":5065,
			"type":"VEC3"
		},
		{
			"bufferView":2,
			"componentType":5126,
			"count":5065,
			"type":"VEC2"
		},
		{
			"bufferView":3,
			"componentType":5123,
			"count":9132,
			"type":"SCALAR"
		},
		{
			"bufferView":4,
			"componentType":5126,
			"count":24,
			"max":[
				1,
				1,
				1
			],
			"min":[
				-1,
				-1,
				-1
			],
			"type":"VEC3"
		},
		{
			"bufferView":5,
			"componentType":5126,
			"count":24,
			"type":"VEC3"
		},
		{
			"bufferView":6,
			"componentType":5126,
			"count":24,
			"type":"VEC2"
		},
		{
			"bufferView":7,
			"componentType":5123,
			"count":36,
			"type":"SCALAR"
		},
		{
			"bufferView":8,
			"componentType":5126,
			"count":24,
			"max":[
				1,
				1,
				1
			],
			"min":[
				-1,
				-1,
				-1
			],
			"type":"VEC3"
		},
		{
			"bufferView":9,
			"componentType":5126,
			"count":24,
			"type":"VEC3"
		},
		{
			"bufferView":10,
			"componentType":5126,
			"count":24,
			"type":"VEC2"
		},
		{
			"bufferView":11,
			"componentType":5126,
			"count":24,
			"max":[
				1,
				1,
				1
			],
			"min":[
				-1,
				-1,
				-1
			],
			"type":"VEC3"
		},
		{
			"bufferView":12,
			"componentType":5126,
			"count":24,
			"type":"VEC3"
		},
		{
			"bufferView":13,
			"componentType":5126,
			"count":24,
			"type":"VEC2"
		},
		{
			"bufferView":14,
			"componentType":5126,
			"count":24,
			"max":[
				1,
				1,
				1
			],
			"min":[
				-1,
				-1,
				-1
			],
			"type":"VEC3"
		},
		{
			"bufferView":15,
			"componentType":5126,
			"count":24,
			"type":"VEC3"
		},
		{
			"bufferView":16,
			"componentType":5126,
			"count":24,
			"type":"VEC2"
		},
		{
			"bufferView":17,
			"componentType":5126,
			"count":2,
			"max":[
				1.6666666666666667
			],
			"min":[
				0
			],
			"type":"SCALAR"
		},
		{
			"bufferView":18,
			"componentType":5126,
			"count":2,
			"type":"VEC3"
		},
		{
			"bufferView":19,
			"componentType":5126,
			"count":41,
			"max":[
				1.6666666666666667
			],
			"min":[
				0
			],
			"type":"SCALAR"
		},
		{
			"bufferView":20,
			"componentType":5126,
			"count":41,
			"type":"VEC4"
		},
		{
			"bufferView":21,
			"componentType":5126,
			"count":2,
			"type":"VEC3"
		}
	],
	"bufferViews":[
		{
			"buffer":0,
			"byteLength":60780,
			"byteOffset":0,
			"target":34962
		},
		{
			"buffer":0,
			"byteLength":60780,
			"byteOffset":60780,
			"target":34962
		},
		{
			"buffer":0,
			"byteLength":40520,
			"byteOffset":121560,
			"target":34962
		},
		{
			"buffer":0,
			"byteLength":18264,
			"byteOffset":162080,
			"target":34963
		},
		{
			"buffer":0,
			"byteLength":288,
			"byteOffset":180344,
			"target":34962
		},
		{
			"buffer":0,
			"byteLength":288,
			"byteOffset":180632,
			"target":34962
		},
		{
			"buffer":0,
			"byteLength":192,
			"byteOffset":180920,
			"target":34962
		},
		{
			"buffer":0,
			"byteLength":72,
			"byteOffset":181112,
			"target":34963
		},
		{
			"buffer":0,
			"byteLength":288,
			"byteOffset":181184,
			"target":34962
		},
		{
			"buffer":0,
			"byteLength":288,
			"byteOffset":181472,
			"target":34962
		},
		{
			"buffer":0,
			"byteLength":192,
			"byteOffset":181760,
			"target":34962
		},
		{
			"buffer":0,
			"byteLength":288,
			"byteOffset":181952,
			"target":34962
		},
		{
			"buffer":0,
			"byteLength":288,
			"byteOffset":182240,
			"target":34962
		},
		{
			"buffer":0,
			"byteLength":192,
			"byteOffset":182528,
			"target":34962
		},
		{
			"buffer":0,
			"byteLength":288,
			"byteOffset":182720,
			"target":34962
		},
		{
			"buffer":0,
			"byteLength":288,
			"byteOffset":183008,
			"target":34962
		},
		{
			"buffer":0,
			"byteLength":192,
			"byteOffset":183296,
			"target":34962
		},
		{
			"buffer":0,
			"byteLength":8,
			"byteOffset":183488
		},
		{
			"buffer":0,
			"byteLength":24,
			"byteOffset":183496
		},
		{
			"buffer":0,
			"byteLength":164,
			"byteOffset":183520
		},
		{
			"buffer":0,
			"byteLength":656,
			"byteOffset":183684
		},
		{
			"buffer":0,
			"byteLength":24,
			"byteOffset":184340
		}
	],
	"samplers":[
		{
			"magFilter":9729,
			"minFilter":9987
		}
	],
	"buffers":[
		{
			"byteLength":184364,
			"uri":"scene.bin"
		}
	]
}
