<?xml version="1.0" encoding="utf-8"?>
<svg width="800px" height="800px" viewBox="0 0 24 24" fill="none" xmlns="http://www.w3.org/2000/svg">
  <path d="M 16 20 L 18 20 C 19.105 20 20 19.105 20 18 L 20 16" stroke-linecap="round" stroke-linejoin="round" style="stroke-width: 3px; stroke: rgb(255, 255, 255);"/>
  <path d="M16 20H18C19.1046 20 20 19.1046 20 18V16" stroke="#333333" stroke-width="2" stroke-linecap="round" stroke-linejoin="round"/>
  <path d="M 8 4 L 6 4 C 4.895 4 4 4.895 4 6 L 4 8" stroke-linecap="round" style="stroke-linejoin: round; fill-rule: nonzero; stroke-width: 3px; stroke: rgb(255, 255, 255);"/>
  <path d="M8 4H6C4.89543 4 4 4.89543 4 6V8" stroke-linecap="round" style="stroke: rgb(51, 51, 51); stroke-linejoin: round; fill-rule: nonzero;" stroke-width="2"/>
  <path d="M 8 20 L 6 20 C 4.895 20 4 19.105 4 18 L 4 16" stroke-linecap="round" stroke-linejoin="round" style="stroke-width: 3px; stroke: rgb(255, 255, 255);"/>
  <path d="M8 20H6C4.89543 20 4 19.1046 4 18V16" stroke="#333333" stroke-width="2" stroke-linecap="round" stroke-linejoin="round"/>
  <path d="M 16 4 L 18 4 C 19.105 4 20 4.895 20 6 L 20 8" stroke-linecap="round" stroke-linejoin="round" style="stroke: rgb(255, 255, 255); stroke-width: 3px;"/>
  <path d="M16 4H18C19.1046 4 20 4.89543 20 6V8" stroke="#333333" stroke-width="2" stroke-linecap="round" stroke-linejoin="round"/>
</svg>