<?xml version="1.0" encoding="utf-8"?>
<svg role="img" viewBox="0 0 24 24" xmlns="http://www.w3.org/2000/svg">
  <title>GitHub</title>
  <path d="M 12 0.718 C 5.552 0.718 0.33 5.898 0.33 12.286 C 0.33 17.398 3.674 21.734 8.309 23.262 C 8.893 23.371 9.107 23.013 9.107 22.705 C 9.107 22.431 9.097 21.703 9.092 20.739 C 5.846 21.437 5.161 19.187 5.161 19.187 C 4.63 17.852 3.863 17.495 3.863 17.495 C 2.806 16.778 3.945 16.792 3.945 16.792 C 5.117 16.873 5.732 17.984 5.732 17.984 C 6.773 19.753 8.464 19.242 9.131 18.946 C 9.236 18.198 9.537 17.688 9.87 17.398 C 7.279 17.109 4.555 16.114 4.555 11.682 C 4.555 10.419 5.007 9.388 5.756 8.578 C 5.624 8.286 5.23 7.11 5.858 5.516 C 5.858 5.516 6.835 5.206 9.067 6.702 C 10.001 6.444 10.992 6.317 11.984 6.311 C 12.976 6.317 13.968 6.444 14.902 6.702 C 17.119 5.206 18.097 5.516 18.097 5.516 C 18.724 7.11 18.33 8.286 18.213 8.578 C 18.957 9.388 19.409 10.419 19.409 11.682 C 19.409 16.126 16.682 17.104 14.085 17.389 C 14.493 17.736 14.873 18.445 14.873 19.529 C 14.873 21.077 14.858 22.321 14.858 22.697 C 14.858 23 15.062 23.362 15.66 23.246 C 20.329 21.729 23.67 17.391 23.67 12.286 C 23.67 5.898 18.445 0.718 12 0.718" style="fill: rgb(24, 23, 23); stroke-linecap: round; stroke-linejoin: round; stroke: rgb(255, 255, 255); stroke-width: 0.5px;"/>
</svg>