<?xml version="1.0" encoding="utf-8"?>
<svg role="img" viewBox="0 0 24 24" xmlns="http://www.w3.org/2000/svg">
  <title>Itch.io</title>
  <path d="M 3.388 1.649 C 2.368 2.252 0.368 4.552 0.349 5.155 L 0.349 6.155 C 0.349 7.421 1.533 8.534 2.606 8.534 C 3.898 8.534 4.971 7.464 4.971 6.194 C 4.971 7.464 6.01 8.534 7.302 8.534 C 8.591 8.534 9.595 7.464 9.595 6.194 C 9.595 7.464 10.699 8.534 11.989 8.534 L 12.012 8.534 C 13.304 8.534 14.407 7.464 14.407 6.194 C 14.407 7.464 15.41 8.534 16.701 8.534 C 17.992 8.534 19.031 7.464 19.031 6.194 C 19.031 7.464 20.105 8.534 21.395 8.534 C 22.466 8.534 23.65 7.42 23.65 6.155 L 23.65 5.155 C 23.631 4.553 21.629 2.252 20.612 1.649 C 17.453 1.538 15.264 1.518 12 1.519 C 8.736 1.519 4.286 1.571 3.388 1.649 Z M 9.578 7.937 C 9.455 8.152 9.302 8.349 9.124 8.522 C 8.638 8.997 7.969 9.293 7.234 9.293 C 6.526 9.294 5.846 9.017 5.34 8.522 C 5.164 8.349 5.03 8.162 4.907 7.949 C 4.784 8.164 4.613 8.349 4.435 8.522 C 3.93 9.016 3.25 9.293 2.542 9.293 C 2.453 9.293 2.361 9.269 2.286 9.243 C 2.182 10.323 2.138 11.356 2.123 12.107 L 2.123 12.112 L 2.117 13.245 C 2.136 15.511 1.894 20.589 3.117 21.837 C 5.012 22.278 8.501 22.48 12.001 22.481 C 15.501 22.481 18.989 22.277 20.884 21.836 C 22.108 20.59 21.865 15.512 21.884 13.246 L 21.879 12.113 L 21.879 12.109 C 21.863 11.357 21.82 10.324 21.715 9.245 C 21.641 9.27 21.548 9.295 21.46 9.295 C 20.752 9.295 20.073 9.018 19.567 8.523 C 19.388 8.351 19.217 8.166 19.095 7.951 C 18.972 8.164 18.838 8.351 18.661 8.523 C 18.155 9.018 17.475 9.295 16.768 9.294 C 16.03 9.294 15.364 9 14.876 8.524 C 14.699 8.352 14.546 8.155 14.422 7.94 C 14.3 8.155 14.149 8.351 13.973 8.524 C 13.467 9.019 12.787 9.296 12.079 9.295 L 11.924 9.295 C 11.217 9.296 10.537 9.02 10.031 8.525 C 9.854 8.352 9.703 8.156 9.58 7.941 L 9.578 7.937 Z M 7.633 10.452 L 7.633 10.454 C 8.404 10.456 9.089 10.454 9.937 11.379 C 10.604 11.309 11.302 11.274 12 11.275 C 12.699 11.275 13.396 11.309 14.063 11.379 C 14.91 10.454 15.595 10.456 16.366 10.454 C 16.731 10.454 18.187 10.454 19.201 13.302 L 20.291 17.213 C 21.099 20.121 20.033 20.192 18.703 20.194 C 16.732 20.121 15.639 18.689 15.639 17.257 C 14.547 17.435 13.274 17.525 12 17.526 C 10.726 17.526 9.452 17.435 8.361 17.257 C 8.361 18.689 7.269 20.121 5.297 20.195 C 3.967 20.191 2.901 20.12 3.708 17.212 L 4.798 13.302 C 5.812 10.454 7.269 10.454 7.633 10.454 L 7.633 10.452 Z M 12 12.693 C 11.998 12.695 9.922 14.6 9.55 15.278 L 10.909 15.224 L 10.909 16.408 C 10.909 16.462 11.453 16.44 12 16.415 C 12.545 16.44 13.091 16.463 13.091 16.407 L 13.091 15.223 L 14.45 15.276 C 14.075 14.599 12 12.692 12 12.692 L 12 12.693 Z" style="fill: rgb(250, 92, 92); stroke-width: 0.5px; stroke: rgb(255, 255, 255); stroke-linecap: round; stroke-linejoin: round;"/>
</svg>